<?xml version="1.0" encoding="UTF-8" standalone="no"?>
<!-- Created with Inkscape (http://www.inkscape.org/) -->

<svg
   width="15.859504mm"
   height="15.261479mm"
   viewBox="0 0 15.859504 15.261479"
   version="1.1"
   id="svg1"
   sodipodi:docname="logo.svg"
   inkscape:export-filename="logo.svg"
   inkscape:export-xdpi="96"
   inkscape:export-ydpi="96"
   inkscape:version="1.3 (0e150ed6c4, 2023-07-21)"
   xmlns:inkscape="http://www.inkscape.org/namespaces/inkscape"
   xmlns:sodipodi="http://sodipodi.sourceforge.net/DTD/sodipodi-0.dtd"
   xmlns="http://www.w3.org/2000/svg"
   xmlns:svg="http://www.w3.org/2000/svg">
  <sodipodi:namedview
     id="namedview1"
     pagecolor="#ffffff"
     bordercolor="#000000"
     borderopacity="0.25"
     inkscape:showpageshadow="2"
     inkscape:pageopacity="0.0"
     inkscape:pagecheckerboard="0"
     inkscape:deskcolor="#d1d1d1"
     inkscape:document-units="mm"
     inkscape:zoom="18.326852"
     inkscape:cx="226.58011"
     inkscape:cy="73.280453"
     inkscape:current-layer="layer1" />
  <defs
     id="defs1" />
  <g
     inkscape:label="Layer 1"
     inkscape:groupmode="layer"
     id="layer1"
     transform="translate(-46.138455,-1.7943754)">
    <path
       id="path2"
       style="fill:#1a1a1a;stroke:#ffff00;stroke-width:0.00667616"
       inkscape:transform-center-y="-1.99145"
       d="m 54.300461,1.8010512 -3.565966,6.1759101 c 0.261941,-0.022049 0.530312,-0.037281 0.811662,-0.037281 0.758199,0 1.551726,0.2007813 2.381454,0.6013401 0.844032,0.3862529 1.559738,0.815675 2.146272,1.2877609 0.600835,0.4577817 1.222401,0.8862507 1.866156,1.2868087 0.658059,0.386252 1.195079,0.579349 1.609944,0.579349 0.15109,0 0.296731,-0.0148 0.437858,-0.04301 z m -2.969409,9.4435958 c -0.586532,0 -1.194644,0.278602 -1.824093,0.836522 -0.478666,0.43414 -0.930856,0.991582 -1.357552,1.66826 h 7.706501 c -0.04162,-0.02707 -0.08525,-0.05265 -0.126195,-0.08032 -0.515003,-0.371941 -1.015519,-0.736046 -1.501911,-1.093687 -0.486392,-0.371946 -0.980182,-0.68705 -1.480881,-0.94455 -0.500698,-0.257503 -0.972394,-0.386234 -1.415869,-0.386234 z"
       inkscape:export-filename="logo.svg"
       inkscape:export-xdpi="7544.4082"
       inkscape:export-ydpi="7544.4082"
       inkscape:label="F.Cu" />
    <path
       style="font-size:3.92938px;font-family:'Fantasque Sans Mono';-inkscape-font-specification:'Fantasque Sans Mono, Normal';fill:#1a1a1a;stroke-width:0.00446611"
       d="m 46.836841,17.03858 v -2.212195 q -0.218725,0 -0.43745,0.0019 -0.216807,0 -0.260936,0 v -0.297389 q 0.101688,0 0.684956,0 0.585186,-0.0019 0.780887,-0.0019 0.09593,0 0.26861,0.02878 l -0.06331,0.291634 Q 47.690642,14.82639 47.59471,14.82639 h -0.450881 v 2.212195 z m 1.970446,-1.69608 q 0.130468,-0.159248 0.287797,-0.222563 0.157328,-0.06523 0.387565,-0.06523 0.228319,0 0.316576,0.143898 0.09018,0.14198 0.09018,0.42402 v 0.01151 h -0.299309 q 0,-0.01919 -0.0019,-0.0614 -0.0019,-0.04413 -0.0038,-0.0614 0,-0.01727 -0.0058,-0.04797 -0.0038,-0.03262 -0.01535,-0.04413 -0.0096,-0.01343 -0.02686,-0.02878 -0.01727,-0.01727 -0.04413,-0.02302 -0.02686,-0.0058 -0.06332,-0.0058 -0.0825,0 -0.15541,0.01919 -0.07291,0.01919 -0.159247,0.06907 -0.08442,0.04797 -0.165003,0.151572 -0.08058,0.103607 -0.149654,0.257099 v 1.162697 l -0.299309,-0.0019 v -1.463924 q 0,-0.01727 -0.0019,-0.03262 -0.0019,-0.01727 -0.0096,-0.03262 -0.0077,-0.01727 -0.01343,-0.02878 -0.0038,-0.01343 -0.01919,-0.02878 -0.01343,-0.01727 -0.02111,-0.02686 -0.0058,-0.0096 -0.02686,-0.02878 -0.0211,-0.01919 -0.0307,-0.02686 -0.0096,-0.0096 -0.03645,-0.03262 -0.02494,-0.02302 -0.03645,-0.03262 l 0.199539,-0.270528 q 0.01343,0.01151 0.05564,0.04605 0.04413,0.03262 0.0614,0.04605 0.01727,0.01343 0.04989,0.04605 0.03453,0.0307 0.05372,0.05564 0.01919,0.02302 0.04221,0.05948 0.02302,0.03645 0.04029,0.07483 z m 1.924399,-1.0188 h 0.450881 v 0.431695 h -0.450881 z m 0.199538,0.754027 h 0.222563 l 0.0019,1.54067 q 0.0058,0.109363 0.06331,0.138142 0.05756,0.02686 0.207213,0.02686 0.149654,0 0.303146,-0.03453 0.153491,-0.03646 0.245586,-0.105526 l 0.130468,0.218726 q -0.117038,0.09593 -0.301227,0.145816 -0.18419,0.04797 -0.376054,0.04797 -0.259017,0 -0.393322,-0.07291 -0.178434,-0.09785 -0.178434,-0.356867 v -1.249037 q -0.262854,0 -0.495009,0.05372 l -0.05564,-0.272447 q 0.347274,-0.08058 0.625477,-0.08058 z m 2.670751,1.026474 q 0,-0.742515 -0.527627,-0.742515 -0.03262,0 -0.06523,0.0077 -0.0307,0.0077 -0.05564,0.01535 -0.02302,0.0058 -0.05564,0.02686 -0.03262,0.01919 -0.04797,0.02878 -0.01343,0.0077 -0.04797,0.03837 -0.03454,0.0307 -0.04221,0.03645 -0.0058,0.0058 -0.04221,0.04221 l -0.03646,0.03645 v 0.838447 q 0.109363,0.176515 0.205295,0.241749 0.09593,0.06523 0.283959,0.06523 0.234075,0 0.331925,-0.161166 0.09977,-0.163084 0.09977,-0.473904 z m 0.301227,0.03645 q 0,0.19762 -0.04221,0.356867 -0.04029,0.159248 -0.12663,0.282041 -0.08442,0.122793 -0.228318,0.189946 -0.14198,0.06523 -0.335763,0.06523 -0.293552,0 -0.489254,-0.174596 -0.0019,0.05756 -0.0211,0.18419 l -0.316576,-0.03646 q 0.03645,-0.23983 0.03645,-0.452799 v -0.04605 q 0,-0.232155 -0.0019,-0.830772 0,-0.600535 0,-0.87682 0,-0.191864 -0.02878,-0.471986 l 0.305064,-0.01727 q 0.02686,0.218725 0.02686,0.498847 v 0.389484 q 0.06523,-0.04797 0.09593,-0.06907 0.03262,-0.02111 0.105526,-0.04413 0.07483,-0.02302 0.165003,-0.02302 0.855715,0 0.855715,1.076359 z m 1.550263,0.468149 q 0.170759,-0.161166 0.170759,-0.604373 0,0 0,-0.03453 -0.0038,-0.287797 -0.115119,-0.460474 -0.111281,-0.172678 -0.351111,-0.172678 -0.145817,0 -0.249424,0.05564 -0.101688,0.05564 -0.159247,0.163085 -0.05756,0.107444 -0.08442,0.245586 -0.02494,0.136224 -0.02494,0.320414 0,0.283959 0.124712,0.443206 0.124712,0.157329 0.362623,0.157329 0.109363,-0.0019 0.180353,-0.02686 0.07291,-0.02494 0.145817,-0.08634 z m -0.330007,0.410589 q -0.383728,-0.0019 -0.585186,-0.237911 -0.201457,-0.237912 -0.201457,-0.65042 0,-0.174597 0.02302,-0.328088 0.02494,-0.15541 0.08058,-0.295471 0.05756,-0.14198 0.14198,-0.243668 0.08634,-0.101688 0.216807,-0.161166 0.130467,-0.0614 0.293552,-0.0614 0.276284,0 0.447044,0.09593 0.172677,0.09401 0.276284,0.289715 0.1132,0.218725 0.1132,0.552569 0,0.172678 -0.02494,0.320413 -0.02302,0.145817 -0.08058,0.282041 -0.05756,0.134305 -0.147736,0.230237 -0.08826,0.09401 -0.228318,0.151573 -0.140061,0.05564 -0.320414,0.05564 z m 1.557938,-0.594779 q 0,0.149654 0.07483,0.234074 0.07675,0.0825 0.211051,0.0825 0.1132,0 0.216806,-0.03262 0.105526,-0.03454 0.172678,-0.07675 0.06715,-0.04413 0.128549,-0.105525 0.06332,-0.0614 0.08826,-0.09401 0.02494,-0.03454 0.04797,-0.07291 v -0.182271 q -0.199539,-0.122793 -0.450881,-0.122793 -0.203376,0.0019 -0.347275,0.103607 -0.141979,0.101688 -0.141979,0.266691 z m 1.241362,-0.01343 q 0,0.245586 0.02494,0.278203 0.01151,0.01535 0.03454,0.03454 0.02494,0.01919 0.0614,0.04797 0.03837,0.02686 0.05564,0.04029 l -0.159248,0.228318 q -0.01343,-0.01151 -0.05948,-0.04221 -0.04413,-0.0307 -0.06332,-0.04797 -0.01919,-0.01919 -0.04988,-0.0518 -0.0307,-0.03454 -0.04988,-0.07675 -0.01727,-0.04413 -0.02686,-0.09977 -0.06907,0.06715 -0.126631,0.111281 -0.05564,0.04413 -0.145816,0.09593 -0.09018,0.0518 -0.203377,0.07866 -0.113199,0.02494 -0.247504,0.02494 -0.243668,0 -0.414427,-0.172678 -0.170759,-0.174597 -0.170759,-0.416346 0,-0.113199 0.04413,-0.230237 0.04413,-0.118955 0.126631,-0.203376 0.128549,-0.130467 0.272447,-0.180352 0.143898,-0.0518 0.330007,-0.0518 0.306982,0 0.46623,0.09785 0,-0.276284 -0.109363,-0.406752 -0.107444,-0.130468 -0.349193,-0.130468 -0.205295,0 -0.316576,0.06523 -0.109363,0.06523 -0.222562,0.266692 l -0.249424,-0.157329 q 0.132386,-0.251342 0.322332,-0.356868 0.191864,-0.107444 0.462393,-0.107444 0.345356,0 0.554488,0.201458 0.209132,0.201457 0.209132,0.527627 z m 1.053334,-1.068684 q 0.130468,-0.159248 0.287797,-0.222563 0.157328,-0.06523 0.387565,-0.06523 0.228319,0 0.316576,0.143898 0.09018,0.14198 0.09018,0.42402 v 0.01151 h -0.299309 q 0,-0.01919 -0.0019,-0.0614 -0.0019,-0.04413 -0.0038,-0.0614 0,-0.01727 -0.0058,-0.04797 -0.0038,-0.03262 -0.01535,-0.04413 -0.0096,-0.01343 -0.02686,-0.02878 -0.01727,-0.01727 -0.04413,-0.02302 -0.02686,-0.0058 -0.06332,-0.0058 -0.0825,0 -0.15541,0.01919 -0.07291,0.01919 -0.159247,0.06907 -0.08442,0.04797 -0.165003,0.151572 -0.08058,0.103607 -0.149654,0.257099 v 1.162697 l -0.299309,-0.0019 v -1.463924 q 0,-0.01727 -0.0019,-0.03262 -0.0019,-0.01727 -0.0096,-0.03262 -0.0077,-0.01727 -0.01343,-0.02878 -0.0038,-0.01343 -0.01919,-0.02878 -0.01343,-0.01727 -0.0211,-0.02686 -0.0058,-0.0096 -0.02686,-0.02878 -0.0211,-0.01919 -0.0307,-0.02686 -0.0096,-0.0096 -0.03645,-0.03262 -0.02494,-0.02302 -0.03645,-0.03262 l 0.199539,-0.270528 q 0.01343,0.01151 0.05564,0.04605 0.04413,0.03262 0.0614,0.04605 0.01727,0.01343 0.04989,0.04605 0.03453,0.0307 0.05372,0.05564 0.01919,0.02302 0.04221,0.05948 0.02302,0.03645 0.04029,0.07483 z m 1.76707,0.761701 q 0,0.312738 0.09593,0.473904 0.09785,0.161166 0.331925,0.161166 0.130468,0 0.216807,-0.03262 0.08634,-0.03454 0.141979,-0.09401 0.05756,-0.0614 0.132387,-0.180352 v -0.838447 q -0.09018,-0.08826 -0.228319,-0.163085 -0.136223,-0.07483 -0.255179,-0.07483 -0.235993,0 -0.335763,0.170759 -0.09977,0.17076 -0.09977,0.577512 z m 1.220257,0.404833 v 0.04988 q 0,0.224481 0.03454,0.448962 l -0.314657,0.03646 q -0.01919,-0.126631 -0.02111,-0.18419 -0.195702,0.174596 -0.491173,0.174596 -0.376054,0 -0.554487,-0.241749 -0.176516,-0.241749 -0.176516,-0.652338 0,-0.205295 0.01919,-0.360705 0.02111,-0.157329 0.07291,-0.297389 0.0518,-0.140061 0.136224,-0.230238 0.08442,-0.09018 0.218725,-0.141979 0.136224,-0.0518 0.318495,-0.0518 0.234074,0 0.454718,0.141979 V 14.80336 q 0,-0.193783 -0.02878,-0.473905 l 0.306983,-0.01535 q 0.02686,0.218726 0.02686,0.496929 z"
       id="text3"
       aria-label="Triboard"
       inkscape:label="F.Cu" />
  </g>
</svg>
